:SAMPLES-PER-SECOND 30
:FULLY-SPECIFIED
:DEGREES
569
root  53.5815 38.5818 -0.327464 -5.88824 85.9917 0.687317
RightUpLeg  2.12458 -8.87813 1.78905
RightLeg  18.5438 -1.14317 0.851121
RightFoot  -13.1625 -0.182771 -5.9023
RightToes  -6.40286e-010 0 -3.6325e-017
Spine  4.61722 2.84975 15.9495
Spine1  9.29761 6.10448 -7.78387
HEad  -4.22845 -2.83362 -4.38477
LeftShoulder1  -0.510184 4.8081 -33.0025
LeftArm  -2.53442 17.9426 -37.1621
LeftForeArm  35.5003 -9.82609 -8.18999
LeftHand  -0.107441 9.05096 -1.79552
RightShoulder  -0.426233 -4.83593 25.0759
RightArm  15.1483 20.0034 48.3632
RightForeArm  7.54386 23.246 4.59378
RightHand  -0.172034 6.29336 -2.04583
LeftUpLeg  -16.478 0.345807 3.31674
LeftLeg  33.4884 -3.33453 -2.0262
LeftFoot  -1.77875 0.363603 -4.22604
LeftToes  1.32783e-010 1.73515e-011 1.59258e-011
570
root  54.49 38.6084 -0.156813 -7.00708 85.7512 -0.968704
RightUpLeg  4.00878 -8.57213 1.89461
RightLeg  16.7524 -1.10999 1.05961
RightFoot  -13.8587 -0.218216 -5.676
RightToes  -6.40286e-010 0 -3.6325e-017
Spine  2.21723 3.66577 15.5937
Spine1  12.134 6.45067 -6.94252
HEad  -6.22515 -2.57277 -5.68803
LeftShoulder1  -0.494436 4.70633 -34.9154
LeftArm  -3.92768 16.9837 -35.9367
LeftForeArm  37.4303 -7.09323 -8.50799
LeftHand  -0.0839123 9.43082 -0.76794
RightShoulder  -0.390212 -4.7876 23.444
RightArm  14.4666 21.7135 49.3072
RightForeArm  8.28979 23.5806 4.61364
RightHand  -0.159067 6.49458 -1.87925
LeftUpLeg  -16.5042 1.87151 3.10762
LeftLeg  22.622 -3.39465 -1.19792
LeftFoot  -1.35715 0.478326 -5.38315
LeftToes  1.32783e-010 1.73515e-011 1.59258e-011
571
root  55.4112 38.6431 0.00564287 -7.36618 85.0884 -1.63443
RightUpLeg  6.29312 -8.07043 1.997
RightLeg  14.5882 -0.636674 1.1218
RightFoot  -14.4642 -0.236342 -5.09117
RightToes  -6.40286e-010 0 -3.6325e-017
Spine  2.20462 3.94422 15.3609
Spine1  11.5045 6.67695 -7.61757
HEad  -6.63184 -2.47904 -5.68074
LeftShoulder1  -0.550871 4.83838 -35.1166
LeftArm  -4.13448 18.5365 -35.325
LeftForeArm  37.3018 -6.54938 -8.40741
LeftHand  -0.0218606 8.54474 0.799484
RightShoulder  -0.456163 -4.99411 23.7381
RightArm  16.6804 22.4636 49.4425
RightForeArm  8.16025 23.6055 4.62631
RightHand  -0.0241475 6.20427 -0.585756
LeftUpLeg  -15.5758 3.971 2.67791
LeftLeg  11.3395 -2.21811 -0.411969
LeftFoot  -0.651782 0.541752 -5.74977
LeftToes  1.32783e-010 1.73515e-011 1.59258e-011
572
root  56.3586 38.6286 0.145935 -9.13956 84.7001 -3.76009
RightUpLeg  8.3835 -7.81776 2.13271
RightLeg  12.8636 -0.498937 1.24877
RightFoot  -15.0419 -0.257744 -4.79891
RightToes  -6.40286e-010 0 -3.6325e-017
Spine  3.14495 3.70911 14.8783
Spine1  9.12881 6.3977 -8.43808
HEad  -6.59187 -1.51433 -5.43701
LeftShoulder1  -0.624384 5.05219 -34.1527
LeftArm  -3.69774 22.1316 -35.4916
LeftForeArm  37.0438 -7.92364 -8.26746
LeftHand  -0.085908 9.095 -1.02993
RightShoulder  -0.464102 -5.0092 23.9593
RightArm  18.7548 21.5802 50.0788
RightForeArm  8.07021 23.5971 4.62982
RightHand  -0.0404777 6.69895 -0.740082
LeftUpLeg  -14.461 4.28928 2.61214
LeftLeg  0.69904 2.17878 -0.344
LeftFoot  0.0746537 0.610668 -6.11425
LeftToes  1.32783e-010 1.73515e-011 1.59258e-011
573
root  57.3656 38.486 0.248549 -15.487 84.2262 -10.2872
RightUpLeg  10.2775 -7.64489 2.67373
RightLeg  12.2333 -0.37457 1.34303
RightFoot  -15.9663 -0.31786 -5.2282
RightToes  -6.40286e-010 0 -3.6325e-017
Spine  2.84265 3.78613 15.444
Spine1  8.6135 6.49774 -9.16092
HEad  -6.50257 -1.34195 -4.96394
LeftShoulder1  -0.68952 5.2222 -33.9537
LeftArm  -3.02716 23.2768 -35.4697
LeftForeArm  37.321 -8.09246 -8.37377
LeftHand  -0.24634 10.0638 -4.49591
RightShoulder  -0.504341 -5.1037 24.7113
RightArm  20.2999 20.5914 50.1887
RightForeArm  8.24655 23.178 4.55741
RightHand  -0.0594349 6.14468 -0.930147
LeftUpLeg  -14.5848 4.12092 2.92698
LeftLeg  -5.04556 6.09533 -0.648244
LeftFoot  -0.754305 0.682824 -7.31167
LeftToes  1.32783e-010 1.73515e-011 1.59258e-011
574
root  58.412 38.2535 0.295413 -21.6717 84.0337 -16.3828
RightUpLeg  12.2925 -7.73427 2.93617
RightLeg  12.21 -0.0351416 1.493
RightFoot  -17.6608 -0.368037 -4.50003
RightToes  -6.40286e-010 0 -3.6325e-017
Spine  2.58939 3.68446 15.6775
Spine1  8.82354 6.36073 -9.16923
HEad  -7.54826 -0.945749 -4.83383
LeftShoulder1  -0.655845 5.13674 -33.9966
LeftArm  -3.23525 23.7885 -36.1434
LeftForeArm  36.7289 -8.38848 -8.24225
LeftHand  -0.354378 11.479 -5.12799
RightShoulder  -0.547471 -5.21005 25.2978
RightArm  21.2852 19.1389 50.3019
RightForeArm  8.31474 22.4895 4.49516
RightHand  -0.0317321 5.97886 -0.658276
LeftUpLeg  -15.6571 3.71401 2.87695
LeftLeg  -5.01849 6.94424 -0.258924
LeftFoot  -2.14747 0.590209 -7.18102
LeftToes  1.32783e-010 1.73515e-011 1.59258e-011
575
root  59.4617 37.9637 0.345671 -25.4853 84.0785 -20.3565
RightUpLeg  13.5549 -8.15112 2.88281
RightLeg  13.2102 0.364772 1.63135
RightFoot  -19.6978 -0.426322 -4.01307
RightToes  -6.40286e-010 0 -3.6325e-017
Spine  2.60788 3.68406 15.8311
Spine1  8.46754 6.37594 -9.35647
HEad  -8.03602 -1.88737 -4.31084
LeftShoulder1  -0.655999 5.13276 -34.1028
LeftArm  -2.59759 22.9086 -36.5278
LeftForeArm  36.8469 -8.08189 -8.63863
LeftHand  -0.0772152 8.09148 -1.39994
RightShoulder  -0.643162 -5.45929 26.1885
RightArm  21.6213 16.7447 49.9
RightForeArm  8.53183 21.7134 4.49771
RightHand  -0.0692712 5.50126 -1.05296
LeftUpLeg  -16.8412 3.84318 2.57142
LeftLeg  -2.69344 7.24994 -0.612259
LeftFoot  -0.201255 0.580863 -5.88399
LeftToes  1.32783e-010 1.73515e-011 1.59258e-011
576
root  60.6012 37.7121 0.351308 -24.0618 83.662 -18.4642
RightUpLeg  15.8797 -8.4468 2.19411
RightLeg  13.6165 1.33471 1.44145
RightFoot  -21.3088 -0.433841 -3.31376
RightToes  -6.40286e-010 0 -3.6325e-017
Spine  3.29211 3.84568 15.8581
Spine1  7.86341 6.78786 -10.0139
HEad  -8.13685 -1.56511 -4.35539
LeftShoulder1  -0.682022 5.20565 -33.9089
LeftArm  -2.71647 22.3279 -37.2272
LeftForeArm  37.1836 -8.46789 -8.58079
LeftHand  -0.0195149 7.21494 0.870082
RightShoulder  -0.686364 -5.53972 27.0446
RightArm  21.061 13.1708 49.5739
RightForeArm  9.10945 20.0824 4.68837
RightHand  -0.0583718 5.28927 -0.942871
LeftUpLeg  -17.5814 3.95842 1.8967
LeftLeg  1.5395 6.56692 -0.553743
LeftFoot  2.07642 0.269899 -2.58899
LeftToes  1.32783e-010 1.73515e-011 1.59258e-011
577
root  61.7854 37.6046 0.345999 -12.5835 82.1861 -7.19849
RightUpLeg  17.2594 -8.36055 0.467904
RightLeg  14.1706 3.19343 1.10421
RightFoot  -22.0495 -0.347174 -2.12612
RightToes  -6.40286e-010 0 -3.6325e-017
Spine  3.19805 4.6075 15.2967
Spine1  7.35272 7.79166 -11.0482
HEad  -8.02486 -2.04269 -3.9937
LeftShoulder1  -0.721451 5.30551 -33.8663
LeftArm  -0.764904 22.1218 -37.3462
LeftForeArm  35.8325 -10.0117 -8.51257
LeftHand  -0.0756001 7.9126 -0.931273
RightShoulder  -0.696259 -5.53865 27.5397
RightArm  20.0013 9.24824 49.7369
RightForeArm  10.8682 16.9048 5.56063
RightHand  -0.0925162 5.36628 -1.30941
LeftUpLeg  -18.2374 3.92147 0.982304
LeftLeg  4.69584 5.81912 -0.263607
LeftFoot  9.03022 -0.288947 1.31397
LeftToes  1.32783e-010 1.73515e-011 1.59258e-011
578
root  63.1046 37.4452 0.310031 -2.7036 81.1768 2.62355
RightUpLeg  18.447 -8.24002 -2.00952
RightLeg  15.8929 4.98607 1.24163
RightFoot  -22.9661 -0.197865 -0.416076
RightToes  -6.40286e-010 0 -3.6325e-017
Spine  2.4598 5.00898 14.1044
Spine1  6.87904 8.13711 -11.6493
HEad  -7.49171 -1.7061 -3.87767
LeftShoulder1  -0.796541 5.48279 -34.0759
LeftArm  2.39456 22.9765 -37.2097
LeftForeArm  31.7064 -13.947 -7.39327
LeftHand  -0.190039 10.2553 -3.20347
RightShoulder  -0.755382 -5.65749 28.4363
RightArm  17.4374 5.90182 49.8571
RightForeArm  16.0796 11.8895 7.00445
RightHand  -0.0104331 3.96415 -0.380162
LeftUpLeg  -18.4539 3.86209 -0.493758
LeftLeg  7.70688 6.51338 0.424464
LeftFoot  14.6182 -0.816132 3.21338
LeftToes  1.32783e-010 1.73515e-011 1.59258e-011
579
root  64.3275 37.4147 0.316419 6.22993 81.2763 11.2415
RightUpLeg  18.9279 -7.5568 -3.84302
RightLeg  17.9453 4.92807 1.45419
RightFoot  -22.5642 0.0907367 2.48679
RightToes  -6.40286e-010 0 -3.6325e-017
Spine  1.18736 4.95994 12.5148
Spine1  7.09838 8.0543 -12.2811
HEad  -7.28178 -1.35559 -3.834
LeftShoulder1  -0.777964 5.44907 -33.8222
LeftArm  2.62085 21.4362 -37.6008
LeftForeArm  30.2569 -14.1457 -7.32833
LeftHand  -0.111091 9.6874 -1.24774
RightShoulder  -0.824613 -5.81229 29.0937
RightArm  13.5448 1.9566 50.49
RightForeArm  21.9374 6.8514 7.34829
RightHand  0.0617208 2.93859 0.622507
LeftUpLeg  -19.6441 5.29564 -2.66529
LeftLeg  12.7616 4.62848 0.772138
LeftFoot  12.1411 -1.1292 5.07339
LeftToes  1.32783e-010 1.73515e-011 1.59258e-011
580
root  65.4551 37.458 0.27322 14.5856 81.414 18.9878
RightUpLeg  17.6987 -6.86028 -5.63878
RightLeg  22.3426 5.58833 2.34092
RightFoot  -20.9395 0.475789 7.41776
RightToes  -6.40286e-010 0 -3.6325e-017
Spine  -1.08479 4.97048 12.3725
Spine1  9.30737 8.40788 -14.1364
HEad  -7.76814 -1.16159 -3.85995
LeftShoulder1  -0.68962 5.21851 -34.0482
LeftArm  1.03132 17.9336 -38.0717
LeftForeArm  30.4251 -13.2141 -7.59432
LeftHand  -0.0246627 7.63289 0.708415
RightShoulder  -0.921938 -6.04588 29.6938
RightArm  12.4039 -1.64275 50.8669
RightForeArm  24.5866 3.4625 6.99628
RightHand  0.0579649 2.55711 0.656317
LeftUpLeg  -19.9909 5.46108 -4.49147
LeftLeg  15.5258 4.01782 1.18703
LeftFoot  9.58746 -1.19272 6.12771
LeftToes  1.32783e-010 1.73515e-011 1.59258e-011
